<?xml version="1.0" standalone="no"?>
<!DOCTYPE svg PUBLIC "-//W3C//DTD SVG 20010904//EN"
 "http://www.w3.org/TR/2001/REC-SVG-20010904/DTD/svg10.dtd">
<svg version="1.0" xmlns="http://www.w3.org/2000/svg"
 width="352.000000pt" height="352.000000pt" viewBox="0 0 352.000000 352.000000"
 preserveAspectRatio="xMidYMid meet">
<metadata>
Created by potrace 1.11, written by Peter Selinger 2001-2013
</metadata>
<g transform="translate(0.000000,352.000000) scale(0.100000,-0.100000)"
fill="#000000" stroke="none">
<path d="M1090 2653 l0 -358 -318 -124 c-174 -68 -419 -164 -545 -213 l-227
-90 1 -351 c1 -194 5 -499 8 -679 l6 -327 535 210 c294 115 536 209 537 209 2
0 3 -40 3 -90 l0 -90 645 0 645 0 0 106 c0 106 0 106 23 100 13 -3 268 -95
568 -205 299 -109 546 -197 548 -196 1 2 0 307 -4 678 l-8 674 -561 205 -561
205 -3 347 -2 346 -645 0 -645 0 0 -357z m750 -289 l0 -105 288 2 287 1 526
-192 526 -192 7 -630 c3 -347 5 -632 3 -634 -2 -2 -817 293 -1054 382 l-43 16
0 249 0 249 -267 -2 -268 -3 -3 -107 -3 -108 -104 0 -105 0 0 583 c0 321 3
587 7 590 3 4 51 7 105 7 l98 0 0 -106z m-750 -751 l0 -638 -518 -202 -517
-202 -7 447 c-5 246 -7 532 -5 636 l2 188 515 203 c283 112 518 203 523 204 4
1 7 -286 7 -636z"/>
</g>
</svg>
